<?xml version="1.0" encoding="iso-8859-1"?>
<!-- Generator: Adobe Illustrator 19.0.0, SVG Export Plug-In . SVG Version: 6.00 Build 0)  -->
<svg xmlns="http://www.w3.org/2000/svg" xmlns:xlink="http://www.w3.org/1999/xlink" version="1.1" id="Layer_1" x="0px" y="0px" viewBox="0 0 512 512" style="enable-background:new 0 0 512 512;" xml:space="preserve" width="512" height="512">
<g>
	<path style="fill:#FF637B;" d="M361,61v62.699c0,39.3-16.5,57.301-34.799,87.301L306.4,233.2l-50.4,3.9l-34.501,2.699   c0-1.5-35.7-28.799-35.7-28.799C167.5,181,151,162.999,151,123.699V61h15c38.101,0,71.7,20.4,90,51c18.3-30.601,51.899-51,90-51   H361z"/>
	<polygon style="fill:#FF637B;" points="151,0 151,61 181,91 181,0  "/>
	<polygon style="fill:#E63950;" points="361,0 331,0 331,91 361,61  "/>
	<path style="fill:#E63950;" d="M361,61v62.699c0,39.3-16.5,57.301-34.799,87.301L306.4,233.2l-50.4,3.9V112   c18.3-30.601,51.899-51,90-51H361z"/>
	<path style="fill:#E63950;" d="M391,497v15h-60.3l-12.9-15l-17.1,15H211.3L196,496.099L181.3,512H121v-15   c0-69.3,15.901-237.1,64.799-286h140.402C375.099,259.9,391,427.7,391,497z"/>
	<path style="fill:#AE2538;" d="M391,497v15h-60.3l-12.9-15l-17.1,15H256V211h70.201C375.099,259.9,391,427.7,391,497z"/>
	<g>
		<rect x="57" y="121" style="fill:#FDE4E4;" width="30" height="105"/>
	</g>
	<g>
		<rect x="20" y="160" style="fill:#FDE4E4;" width="105" height="30"/>
	</g>
	<g>
		<g>
			<rect x="426" y="271" style="fill:#FCCED3;" width="30" height="105"/>
		</g>
	</g>
	<g>
		<g>
			<rect x="387" y="310" style="fill:#FCCED3;" width="105" height="30"/>
		</g>
	</g>
	<rect x="61" y="331" style="fill:#FDE4E4;" width="30" height="30"/>
	<rect x="421" y="151" style="fill:#FCCED3;" width="30" height="30"/>
	<path style="fill:#E63950;" d="M330.7,512h-30c1.5-64.801-6-130-22.2-192.1l29.099-7.8C324.401,376.899,332.199,444.8,330.7,512z"/>
	<path style="fill:#FF637B;" d="M233.5,319.9C217.301,382,209.801,447.199,211.3,512h-30c-1.5-67.2,6.299-135.101,23.101-199.9   L233.5,319.9z"/>
</g>















</svg>
