<?xml version="1.0" encoding="iso-8859-1"?>
<!-- Generator: Adobe Illustrator 19.0.0, SVG Export Plug-In . SVG Version: 6.00 Build 0)  -->
<svg version="1.1" id="Layer_1" xmlns="http://www.w3.org/2000/svg" xmlns:xlink="http://www.w3.org/1999/xlink" x="0px" y="0px"
	 viewBox="0 0 496.12 496.12" style="enable-background:new 0 0 496.12 496.12;" xml:space="preserve">
<path style="fill:#0D5F68;" d="M248.052,153.464c32.528,0,59.376,2.16,63.968,4.936c0.464-0.856,0.768-1.736,0.768-2.64
	c0-9.968-28.984-18.064-64.736-18.064s-64.72,8.096-64.72,18.064c0,0.904,0.296,1.784,0.76,2.64
	C188.66,155.624,215.524,153.464,248.052,153.464z"/>
<g>
	<path style="fill:#9574C1;" d="M347.252,29.104c0,67.08-95.72,121.44-99.192,121.44s-99.208-54.36-99.208-121.44
		s39.056,2.8,99.208,2.8C308.196,31.904,347.252-37.968,347.252,29.104z"/>
	<polygon style="fill:#9574C1;" points="455.884,471.096 248.06,488.112 40.236,471.096 248.06,30.248 	"/>
	<polygon style="fill:#9574C1;" points="303.348,184.056 192.756,184.056 173.676,56.056 322.428,56.056 	"/>
	<ellipse style="fill:#9574C1;" cx="77.268" cy="472.376" rx="36.96" ry="11.08"/>
	<ellipse style="fill:#9574C1;" cx="134.284" cy="476.536" rx="36.952" ry="11.096"/>
	<ellipse style="fill:#9574C1;" cx="191.3" cy="480.776" rx="36.952" ry="11.096"/>
	<ellipse style="fill:#9574C1;" cx="418.86" cy="472.376" rx="36.96" ry="11.08"/>
	<path style="fill:#9574C1;" d="M324.868,476.576c0,6.128,16.544,11.096,36.968,11.096c20.392,0,36.952-4.968,36.952-11.096
		s-16.56-11.096-36.952-11.096C341.412,465.488,324.868,470.456,324.868,476.576z"/>
	<ellipse style="fill:#9574C1;" cx="304.78" cy="480.776" rx="36.96" ry="11.096"/>
	<ellipse style="fill:#9574C1;" cx="248.06" cy="485.016" rx="36.96" ry="11.096"/>
</g>
<path style="fill:#7B5CAD;" d="M412.46,472.096L294.852,169.36l6.984-71.688c13.728-18.768,40.84-25.336,40.84-49.832
	c0-64.392-47.048-12.496-94.616-12.496c-47.584,0-94.632-51.888-94.632,12.496c0,24.496,27.112,31.048,40.856,49.824l6.968,71.712
	L83.66,472.096l0.376,0.048c-0.128,0.392-0.328,0.768-0.328,1.16c0,5.888,13.096,10.656,29.232,10.656
	c6.944,0,13.232-0.92,18.248-2.392c4.488,3.784,14.816,6.44,26.856,6.44c6.952,0,13.248-0.904,18.264-2.376
	c4.472,3.784,14.8,6.44,26.84,6.44c6.872,0,13.112-0.904,18.112-2.36c4.496,3.784,14.792,6.408,26.792,6.408
	c11.992,0,22.288-2.624,26.792-6.408c5,1.456,11.232,2.36,18.104,2.36c12.056,0,22.368-2.656,26.848-6.44
	c5.016,1.472,11.312,2.376,18.248,2.376c12.064,0,22.392-2.656,26.856-6.44c5.016,1.472,11.312,2.392,18.248,2.392
	c16.144,0,29.232-4.768,29.232-10.656c0-0.392-0.2-0.768-0.32-1.16L412.46,472.096z"/>
<g>
	<path style="fill:#684E9B;" d="M183.332,155.824c0,9.968,28.984,31.872,64.736,31.872s64.72-21.904,64.72-31.872"/>
	<path style="fill:#684E9B;" d="M131.196,481.56c4.488,3.784,14.816,6.44,26.856,6.44c6.952,0,13.248-0.904,18.264-2.376
		c4.472,3.784,14.8,6.44,26.84,6.44c6.872,0,13.112-0.904,18.112-2.36c4.496,3.784,14.792,6.408,26.792,6.408
		c11.992,0,22.288-2.624,26.792-6.408c5,1.456,11.232,2.36,18.104,2.36c12.056,0,22.368-2.656,26.848-6.44
		c5.016,1.472,11.312,2.376,18.248,2.376c12.064,0,22.392-2.656,26.856-6.44c5.016,1.472,11.312,2.392,18.248,2.392
		c16.144,0,29.232-4.768,29.232-10.656c0-0.392-0.2-0.768-0.32-1.16l0.384-0.048l-141.84-302.736l30.84-75.984
		c-16.344,4.232-34.392-17.424-53.408-17.424s-37.056,21.656-53.408,17.44l30.84,75.984"/>
	<path style="fill:#684E9B;" d="M250.268,79.344c-2.792,7.936-29.376,30.376-49.92,23.16c-20.528-7.216-35.08-50.2-32.264-58.16
		c2.776-7.936,29.528,0.296,50.072,7.528C238.692,59.088,253.084,71.392,250.268,79.344z"/>
	<path style="fill:#684E9B;" d="M245.836,79.344c2.784,7.936,29.376,30.376,49.904,23.16c20.544-7.216,35.096-50.2,32.296-58.16
		c-2.792-7.936-29.544,0.296-50.096,7.528C257.412,59.088,243.036,71.392,245.836,79.344z"/>
</g>
<path style="fill:#28C5C9;" d="M248.068,158.12c-32.528,0-59.392-2.16-63.976-4.936c-0.464,0.856-0.76,1.736-0.76,2.64
	c0,9.968,28.984,18.064,64.736,18.064s64.72-8.096,64.72-18.064c0-0.904-0.304-1.784-0.768-2.64
	C307.444,155.968,280.596,158.12,248.068,158.12z"/>
<path style="fill:#684E9B;" d="M312.788,155.824c0-0.904-0.304-1.784-0.768-2.64c-4.576,2.784-31.424,4.936-63.952,4.936
	s-59.392-2.16-63.976-4.936c-0.464,0.856-0.76,1.736-0.76,2.64"/>
<path style="fill:#18ACB7;" d="M248.068,162.104c-33.168,0-60.456-0.048-64.248-7.984c-0.2,0.544-0.488,1.112-0.488,1.704
	c0,9.968,28.984,18.064,64.736,18.064s64.72-8.096,64.72-18.064c0-0.592-0.28-1.16-0.496-1.704
	C308.508,162.056,281.228,162.104,248.068,162.104z"/>
<path style="fill:#F29E25;" d="M237.348,156.952c5.912-5.904,15.504-5.904,21.408,0c5.92,5.92,5.92,15.512,0.016,21.44"/>
<g>
	<circle style="fill:#9574C1;" cx="206.532" cy="98.248" r="2.272"/>
	<circle style="fill:#9574C1;" cx="218.38" cy="98.248" r="2.264"/>
	<circle style="fill:#9574C1;" cx="230.26" cy="98.248" r="2.272"/>
	<circle style="fill:#9574C1;" cx="242.14" cy="98.248" r="2.272"/>
	<circle style="fill:#9574C1;" cx="253.988" cy="98.248" r="2.264"/>
	<circle style="fill:#9574C1;" cx="265.9" cy="98.248" r="2.272"/>
	<circle style="fill:#9574C1;" cx="277.716" cy="98.248" r="2.272"/>
	<circle style="fill:#9574C1;" cx="289.58" cy="98.248" r="2.272"/>
	<circle style="fill:#9574C1;" cx="206.532" cy="111.624" r="2.272"/>
	<circle style="fill:#9574C1;" cx="218.38" cy="111.624" r="2.264"/>
	<circle style="fill:#9574C1;" cx="230.26" cy="111.624" r="2.272"/>
	<circle style="fill:#9574C1;" cx="242.14" cy="111.624" r="2.272"/>
	<circle style="fill:#9574C1;" cx="253.988" cy="111.624" r="2.264"/>
	<circle style="fill:#9574C1;" cx="265.9" cy="111.624" r="2.272"/>
	<circle style="fill:#9574C1;" cx="277.716" cy="111.624" r="2.272"/>
	<circle style="fill:#9574C1;" cx="289.58" cy="111.624" r="2.272"/>
	<circle style="fill:#9574C1;" cx="206.532" cy="125.016" r="2.272"/>
	<circle style="fill:#9574C1;" cx="218.38" cy="125.016" r="2.264"/>
	<circle style="fill:#9574C1;" cx="230.26" cy="125.016" r="2.272"/>
	<circle style="fill:#9574C1;" cx="242.14" cy="125.016" r="2.272"/>
	<circle style="fill:#9574C1;" cx="253.988" cy="125.016" r="2.264"/>
	<circle style="fill:#9574C1;" cx="265.9" cy="125.016" r="2.272"/>
	<circle style="fill:#9574C1;" cx="277.716" cy="125.016" r="2.272"/>
	<circle style="fill:#9574C1;" cx="289.58" cy="125.016" r="2.272"/>
	<circle style="fill:#9574C1;" cx="206.532" cy="138.392" r="2.272"/>
	<circle style="fill:#9574C1;" cx="218.38" cy="138.392" r="2.264"/>
	<circle style="fill:#9574C1;" cx="230.26" cy="138.392" r="2.272"/>
	<circle style="fill:#9574C1;" cx="242.14" cy="138.392" r="2.272"/>
	<circle style="fill:#9574C1;" cx="253.988" cy="138.392" r="2.264"/>
	<circle style="fill:#9574C1;" cx="265.9" cy="138.392" r="2.272"/>
	<circle style="fill:#9574C1;" cx="277.716" cy="138.392" r="2.272"/>
	<circle style="fill:#9574C1;" cx="289.58" cy="138.392" r="2.272"/>
	<circle style="fill:#9574C1;" cx="206.532" cy="151.76" r="2.272"/>
	<circle style="fill:#9574C1;" cx="218.38" cy="151.76" r="2.264"/>
	<circle style="fill:#9574C1;" cx="230.26" cy="151.76" r="2.272"/>
	<circle style="fill:#9574C1;" cx="242.14" cy="151.76" r="2.272"/>
	<circle style="fill:#9574C1;" cx="253.988" cy="151.76" r="2.264"/>
	<circle style="fill:#9574C1;" cx="265.9" cy="151.76" r="2.272"/>
	<circle style="fill:#9574C1;" cx="277.716" cy="151.76" r="2.272"/>
	<circle style="fill:#9574C1;" cx="289.58" cy="151.76" r="2.272"/>
</g>
<circle style="fill:#F4B822;" cx="248.06" cy="167.672" r="15.152"/>
<g>
</g>
<g>
</g>
<g>
</g>
<g>
</g>
<g>
</g>
<g>
</g>
<g>
</g>
<g>
</g>
<g>
</g>
<g>
</g>
<g>
</g>
<g>
</g>
<g>
</g>
<g>
</g>
<g>
</g>
</svg>
