<?xml version="1.0" encoding="iso-8859-1"?>
<!-- Generator: Adobe Illustrator 19.0.0, SVG Export Plug-In . SVG Version: 6.00 Build 0)  -->
<svg xmlns="http://www.w3.org/2000/svg" xmlns:xlink="http://www.w3.org/1999/xlink" version="1.1" id="Layer_1" x="0px" y="0px" viewBox="0 0 512 512" style="enable-background:new 0 0 512 512;" xml:space="preserve" width="512" height="512">
<g>
	<path style="fill:#FFB6FA;" d="M362,0v85.199c0,16.201-2.401,31.8-6.599,46.8c-4.801,15.3-9.302,27.001-12.902,36.301   c-5.999,15.3-8.099,21-6.299,26.7l-26.7,30H203.699l-27.9-30c1.8-5.7-0.3-11.4-6-26.4c-3.898-9.3-8.399-21-13.2-36.601   c-4.199-15-6.599-30.599-6.599-46.8V0h30v68.099C189,62.999,199.2,60,210,60c17.999,0,34.9,8.099,46,20.7   C267.1,68.099,284.001,60,302,60c10.8,0,21,2.999,30,8.099V0H362z"/>
	<path style="fill:#FF9AC9;" d="M362,0v85.199c0,16.201-2.401,31.8-6.599,46.8c-4.801,15.3-9.302,27.001-12.902,36.301   c-5.999,15.3-8.099,21-6.299,26.7l-26.7,30H256V80.7C267.1,68.099,284.001,60,302,60c10.8,0,21,2.999,30,8.099V0H362z"/>
	<path style="fill:#FFD396;" d="M75,240H45c0-24.814-20.186-45-45-45v-30c24.814,0,45-20.186,45-45h30c0,24.814,20.186,45,45,45v30   C95.186,195,75,215.186,75,240z M44.956,180c5.698,4.277,10.767,9.346,15.044,15.044c4.277-5.698,9.346-10.767,15.044-15.044   c-5.698-4.277-10.767-9.346-15.044-15.044C55.723,170.654,50.654,175.723,44.956,180z"/>
	<path style="fill:#FFB64C;" d="M467,120h-30c0-24.814-20.186-45-45-45V45c24.814,0,45-20.186,45-45h30c0,24.814,20.186,45,45,45v30   C487.186,75,467,95.186,467,120z M436.956,60c5.698,4.277,10.767,9.346,15.044,15.044c4.277-5.698,9.346-10.767,15.044-15.044   c-5.698-4.277-10.767-9.346-15.044-15.044C447.723,50.654,442.654,55.723,436.956,60z"/>
	<path style="fill:#FFD2FE;" d="M356.6,454.999c-3.001,14.101-6.601,29.101-9.901,45L344.001,512H167.999l-2.699-12.001   c-3.3-15.601-6.601-30.3-9.901-44.399c-23.101-101.7-38.101-170.9,16.199-252.8c2.1-3.001,3.602-5.402,4.2-7.8H336.2   c0.599,2.399,2.1,4.799,4.2,7.8C394.701,284.7,379.701,353.599,356.6,454.999z"/>
	<path style="fill:#FFB6FA;" d="M356.6,454.999c-3.001,14.101-6.601,29.101-9.901,45L344.001,512H256V195h80.2   c0.599,2.399,2.1,4.799,4.2,7.8C394.701,284.7,379.701,353.599,356.6,454.999z"/>
</g>















</svg>
