<?xml version="1.0" encoding="iso-8859-1"?>
<!-- Generator: Adobe Illustrator 22.1.0, SVG Export Plug-In . SVG Version: 6.00 Build 0)  -->
<svg xmlns="http://www.w3.org/2000/svg" xmlns:xlink="http://www.w3.org/1999/xlink" version="1.1" id="Layer_3" x="0px" y="0px" viewBox="0 0 64 64" style="enable-background:new 0 0 64 64;" xml:space="preserve" width="512" height="512">
<g>
	<g>
		<path style="fill:#F2B3A2;" d="M57,62H7V49c0-13.807,11.193-25,25-25h0c13.807,0,25,11.193,25,25V62z"/>
	</g>
	<g>
		<path style="fill:#FCD0CD;" d="M29.5,24.125C16.867,25.379,7,36.037,7,49v13h45V49C52,36.037,42.133,25.379,29.5,24.125z"/>
	</g>
	<g>
		<path style="fill:#DB5791;" d="M57.996,8l3.252-2.53c0.933-0.726,1.01-2.078,0.165-2.9l0,0c-0.783-0.761-2.051-0.761-2.834,0    l-0.583,0.567l-0.583-0.567c-0.783-0.761-2.051-0.761-2.834,0l0,0c-0.845,0.821-0.767,2.174,0.165,2.9L57.996,8z"/>
	</g>
	<g>
		<path style="fill:#F19ECC;" d="M58.579,2.571l-0.583,0.567l-0.583-0.567c-0.358-0.348-0.819-0.529-1.288-0.559l-0.129,0.126    l-0.129-0.126c-0.469,0.029-0.929,0.21-1.288,0.559c-0.844,0.821-0.767,2.174,0.165,2.899l1.609,1.252l2.894-2.252    c0.777-0.605,0.951-1.642,0.501-2.447C59.322,2.075,58.907,2.252,58.579,2.571z"/>
	</g>
	<g>
		<path style="fill:#DB5791;" d="M49.996,15l3.252-2.53c0.933-0.726,1.01-2.078,0.165-2.9l0,0c-0.783-0.761-2.051-0.761-2.834,0    l-0.583,0.567l-0.583-0.567c-0.783-0.761-2.051-0.761-2.834,0l0,0c-0.845,0.821-0.767,2.174,0.165,2.9L49.996,15z"/>
	</g>
	<g>
		<path style="fill:#F19ECC;" d="M50.579,9.571l-0.583,0.567l-0.583-0.567c-0.358-0.348-0.819-0.529-1.288-0.559l-0.129,0.126    l-0.129-0.126c-0.469,0.029-0.929,0.21-1.288,0.559c-0.844,0.821-0.767,2.174,0.165,2.899l1.609,1.252l2.894-2.252    c0.777-0.605,0.951-1.642,0.501-2.447C51.322,9.075,50.907,9.252,50.579,9.571z"/>
	</g>
	<g>
		<path style="fill:#DB5791;" d="M57.996,8l3.252-2.53c0.933-0.726,1.01-2.078,0.165-2.9l0,0c-0.783-0.761-2.051-0.761-2.834,0    l-0.583,0.567l-0.583-0.567c-0.783-0.761-2.051-0.761-2.834,0l0,0c-0.845,0.821-0.767,2.174,0.165,2.9L57.996,8z"/>
	</g>
	<g>
		<path style="fill:#F19ECC;" d="M58.579,2.571l-0.583,0.567l-0.583-0.567c-0.358-0.348-0.819-0.529-1.288-0.559l-0.129,0.126    l-0.129-0.126c-0.469,0.029-0.929,0.21-1.288,0.559c-0.844,0.821-0.767,2.174,0.165,2.899l1.609,1.252l2.894-2.252    c0.777-0.605,0.951-1.642,0.501-2.447C59.322,2.075,58.907,2.252,58.579,2.571z"/>
	</g>
	<g>
		<path style="fill:#DB5791;" d="M5.996,8l3.252-2.53c0.933-0.726,1.01-2.078,0.165-2.9l0,0c-0.783-0.761-2.051-0.761-2.834,0    L5.996,3.138L5.413,2.571c-0.783-0.761-2.051-0.761-2.834,0l0,0c-0.845,0.821-0.767,2.174,0.165,2.9L5.996,8z"/>
	</g>
	<g>
		<path style="fill:#F19ECC;" d="M6.579,2.571L5.996,3.138L5.413,2.571C5.055,2.222,4.594,2.041,4.125,2.012L3.996,2.138    L3.867,2.012c-0.469,0.029-0.929,0.21-1.288,0.559C1.735,3.392,1.812,4.745,2.744,5.47l1.609,1.252L7.248,4.47    c0.777-0.605,0.951-1.642,0.501-2.447C7.322,2.075,6.907,2.252,6.579,2.571z"/>
	</g>
	<g>
		<path style="fill:#DB5791;" d="M13.996,15l3.252-2.53c0.933-0.726,1.01-2.078,0.165-2.9l0,0c-0.783-0.761-2.051-0.761-2.834,0    l-0.583,0.567l-0.583-0.567c-0.783-0.761-2.051-0.761-2.834,0l0,0c-0.845,0.821-0.767,2.174,0.165,2.9L13.996,15z"/>
	</g>
	<g>
		<path style="fill:#F19ECC;" d="M14.579,9.571l-0.583,0.567l-0.583-0.567c-0.358-0.348-0.819-0.529-1.288-0.559l-0.129,0.126    l-0.129-0.126c-0.469,0.029-0.929,0.21-1.288,0.559c-0.844,0.821-0.767,2.174,0.165,2.899l1.609,1.252l2.894-2.252    c0.777-0.605,0.951-1.642,0.501-2.447C15.322,9.075,14.907,9.252,14.579,9.571z"/>
	</g>
	<g>
		<path style="fill:#CD766D;" d="M20.014,49.164l1.973-0.328l-0.697-4.186C21.097,43.502,21,42.327,21,41.159    c0-3.848,1.046-7.626,3.013-10.904l3.743-5.889c-0.945,0.162-1.871,0.376-2.777,0.641l-2.668,4.197    C20.145,32.815,19,36.949,19,41.159c0,1.277,0.106,2.563,0.316,3.82L20.014,49.164z"/>
	</g>
	<g>
		<path style="fill:#CD766D;" d="M39.974,30.233c1.98,3.3,3.026,7.079,3.026,10.926c0,1.168-0.097,2.343-0.289,3.492l-0.697,4.185    l1.973,0.328l0.697-4.184C44.894,43.723,45,42.437,45,41.159c0-4.21-1.145-8.344-3.311-11.954l-2.476-4.144    c-0.886-0.267-1.794-0.482-2.718-0.65L39.974,30.233z"/>
	</g>
	<g>
		<path style="fill:#CD766D;" d="M31,48h2V24.025C32.668,24.012,32.335,24,32,24s-0.668,0.012-1,0.025V48z"/>
	</g>
	<g>
		<g>
			<rect x="25" y="2" style="fill:#CCCCCC;" width="2" height="6"/>
		</g>
	</g>
	<g>
		<g>
			<rect x="37" y="2" style="fill:#CCCCCC;" width="2" height="6"/>
		</g>
	</g>
	<g>
		<path style="fill:#F2B3A2;" d="M39,25l-0.614-1.841C38.13,22.391,38,21.587,38,20.778v0c0-1.169,0.272-2.322,0.795-3.368    l1.43-2.86l0,0C41.321,13.644,42,12.388,42,11c0-2.761-2.686-5-6-5c-1.539,0-2.938,0.487-4,1.281C30.938,6.487,29.539,6,28,6    c-3.314,0-6,2.239-6,5c0,1.381,0.672,2.631,1.757,3.536l0.018,0.014l1.43,2.86C25.728,18.456,26,19.609,26,20.778v0    c0,0.809-0.13,1.614-0.386,2.382L25,25H39z"/>
	</g>
	<g>
		<path style="fill:#FCD0CD;" d="M35,20.778c0-1.169,0.272-2.322,0.795-3.368l1.43-2.86l0,0C38.321,13.644,39,12.388,39,11    c0-2.319-1.897-4.264-4.467-4.829C33.58,6.373,32.71,6.75,32,7.281c-0.443-0.331-0.955-0.593-1.5-0.804    C29.955,6.688,29.443,6.95,29,7.281c-0.71-0.531-1.58-0.907-2.533-1.11C23.897,6.736,22,8.681,22,11    c0,1.381,0.672,2.631,1.757,3.536l0.018,0.014l1.43,2.86C25.728,18.456,26,19.609,26,20.778c0,0.81-0.13,1.614-0.386,2.382L25,25    h11l-0.614-1.841C35.13,22.391,35,21.587,35,20.778z"/>
	</g>
	<g>
		<path style="fill:#CD766D;" d="M39.873,15.255l-2.637,1.509c-3.235,1.618-7.318,1.572-10.389,0.046l-2.824-1.765l1.182,2.365    c0.158,0.315,0.285,0.643,0.396,0.976l0.268,0.167C27.764,19.5,29.883,20,32,20s4.236-0.5,6.179-1.474l0.214-0.122    c0.113-0.339,0.241-0.673,0.402-0.994L39.873,15.255z"/>
	</g>
</g>
</svg>
